<svg width="60" height="60" viewBox="0 0 60 60" fill="none" xmlns="http://www.w3.org/2000/svg"><path fill-rule="evenodd" clip-rule="evenodd" d="M56 30c0 14.36-11.64 26-26 26S4 44.36 4 30 15.64 4 30 4s26 11.64 26 26zm4 0c0 16.569-13.431 30-30 30C13.431 60 0 46.569 0 30 0 13.431 13.431 0 30 0c16.569 0 30 13.431 30 30zm-31.562-8.419c.728-.941 1.127-1.445 1.455-1.749.043-.04.079-.07.107-.093.028.023.064.053.107.093.328.304.727.808 1.455 1.75 1.324 1.71 2.8 3.768 3.937 5.75 1.193 2.078 1.801 3.722 1.801 4.707 0 4.002-3.26 7.261-7.3 7.261s-7.3-3.259-7.3-7.261c0-.985.608-2.629 1.8-4.708 1.137-1.98 2.614-4.04 3.938-5.75zM30 15.7c-1.209 0-2.114.54-2.824 1.196-.603.558-1.206 1.338-1.82 2.132l-.082.105c-1.375 1.777-2.976 4-4.243 6.208-1.21 2.11-2.331 4.564-2.331 6.698C18.7 38.266 23.767 43.3 30 43.3c6.233 0 11.3-5.034 11.3-11.261 0-2.134-1.12-4.588-2.331-6.698-1.267-2.208-2.868-4.43-4.243-6.208l-.082-.105c-.614-.794-1.217-1.574-1.82-2.132-.71-.656-1.615-1.196-2.824-1.196z" fill="url(#paint0_linear_25_888)"/><defs><linearGradient id="paint0_linear_25_888" x1="30" y1="0" x2="30" y2="60" gradientUnits="userSpaceOnUse"><stop offset=".349" stop-color="#3A75C5"/><stop offset=".62" stop-color="#F9DD18"/></linearGradient></defs></svg>